<?xml version="1.0" standalone="no"?>
<!DOCTYPE svg PUBLIC "-//W3C//DTD SVG 20010904//EN"
 "http://www.w3.org/TR/2001/REC-SVG-20010904/DTD/svg10.dtd">
<svg version="1.0" xmlns="http://www.w3.org/2000/svg"
 width="988.000000pt" height="1280.000000pt" viewBox="0 0 988.000000 1280.000000"
 preserveAspectRatio="xMidYMid meet">
<g transform="translate(0.000000,1280.000000) scale(0.100000,-0.100000)"
fill="#000000" stroke="none">
<path d="M4826 12784 c-3 -9 -6 -45 -6 -82 0 -48 -5 -71 -17 -84 -14 -15 -14
-19 -3 -16 13 3 15 -52 12 -422 -4 -414 -7 -461 -38 -562 -4 -14 -1 -16 12
-11 18 7 19 120 -6 -1192 -5 -275 -14 -747 -20 -1050 -6 -302 -15 -786 -20
-1075 -5 -289 -14 -768 -20 -1065 -6 -297 -15 -776 -20 -1065 -5 -289 -14
-768 -20 -1065 -14 -736 -28 -1510 -40 -2115 -5 -278 -14 -784 -20 -1125 -6
-341 -13 -629 -15 -641 -4 -20 -13 -21 -157 -27 -84 -4 -259 -2 -388 3 -129 6
-638 10 -1130 10 -492 -1 -917 0 -945 1 l-50 1 50 9 c48 8 127 14 790 59 160
11 355 25 435 30 290 20 739 50 895 60 88 6 175 13 194 16 l34 5 -7 237 c-57
2029 -70 2930 -63 4462 6 1135 11 1414 37 2055 45 1089 129 1976 246 2594 14
73 23 135 21 137 -2 3 -25 -69 -50 -158 -25 -90 -105 -372 -177 -628 -290
-1029 -450 -1601 -449 -1608 0 -4 9 16 19 43 10 28 19 45 19 38 2 -21 -286
-1065 -888 -3223 -738 -2649 -1133 -4069 -1140 -4100 -8 -42 -49 -57 -58 -21
-3 11 -11 22 -18 25 -7 2 -53 81 -101 175 -82 157 -91 171 -119 175 -16 3
-154 8 -305 11 -151 3 -334 8 -407 11 l-131 7 -121 -182 c-67 -100 -121 -186
-121 -192 0 -23 19 -3 70 76 30 46 62 85 70 87 8 2 125 1 258 -3 195 -4 246
-8 253 -20 15 -23 11 -189 -4 -195 -16 -6 -609 24 -630 31 -7 3 -24 -4 -37
-15 -18 -15 -33 -20 -55 -16 -16 3 -88 13 -160 22 -104 13 -135 21 -155 39
-21 18 -34 21 -78 17 -45 -3 -52 -7 -47 -21 4 -9 9 -31 12 -48 6 -37 5 -36
161 -52 82 -9 104 -16 200 -64 348 -175 656 -432 970 -808 l72 -87 71 -4 c55
-3 75 -8 88 -23 13 -16 31 -20 86 -22 39 -2 97 -4 130 -5 33 -2 130 6 215 16
207 26 413 26 500 2 55 -15 86 -17 210 -11 134 6 149 5 205 -16 53 -20 88 -23
315 -30 157 -4 301 -14 375 -25 90 -14 187 -19 390 -20 149 -1 306 -2 350 -2
44 -1 188 -9 320 -19 294 -21 475 -22 620 -3 71 10 175 14 295 12 l186 -3 58
46 c80 62 121 59 239 -17 l49 -31 68 22 68 22 36 -22 c34 -20 45 -21 139 -15
262 18 425 36 460 51 32 13 48 14 90 6 235 -47 928 -42 1352 10 508 62 794
116 865 164 19 12 176 71 348 130 171 59 312 112 312 118 0 5 -36 77 -81 159
-44 83 -78 156 -75 163 8 21 -70 127 -106 143 -18 8 -37 14 -42 13 -5 -1 -22
3 -37 8 -16 5 -203 17 -416 27 -298 13 -391 20 -403 31 -8 7 -51 84 -95 171
l-80 157 -346 56 c-346 56 -346 56 -642 64 -245 6 -297 10 -297 21 0 8 27 68
60 134 l60 120 -41 30 c-41 30 -44 30 -170 30 -70 0 -138 -4 -151 -9 -13 -5
-90 -65 -172 -134 l-149 -124 -109 -5 c-59 -3 -114 -10 -121 -16 -8 -7 -174
-15 -442 -22 l-430 -11 -240 -159 -240 -160 -123 0 -122 0 0 588 c1 323 5
1302 9 2177 5 875 12 2303 15 3175 18 4253 25 5460 31 5470 3 6 11 8 16 5 5
-4 4 6 -1 21 -14 36 -4 44 93 79 43 15 80 31 82 35 3 4 -46 13 -108 20 -61 7
-122 16 -134 21 -15 6 -23 4 -27 -7z m-879 -4176 c-3 -8 -6 -5 -6 6 -1 11 2
17 5 13 3 -3 4 -12 1 -19z m-2779 -7041 c7 -6 12 -34 12 -72 0 -38 -5 -67 -12
-73 -20 -15 -478 -3 -485 14 -4 12 69 131 91 147 16 10 378 -4 394 -16z m429
-3 c14 -2 34 -26 57 -69 58 -106 72 -99 -201 -91 -131 4 -241 10 -245 12 -9 6
-11 148 -3 156 6 6 358 -1 392 -8z m115 -190 c11 -7 88 -152 88 -167 0 -18
-81 -27 -246 -27 -111 0 -126 -2 -144 -20 -17 -17 -33 -20 -98 -20 -115 0
-120 5 -115 127 3 54 6 104 9 112 3 11 48 12 252 6 136 -4 250 -9 254 -11z"/>
<path d="M5007 12376 c-3 -8 -21 -16 -39 -18 l-33 -3 -3 -5168 -2 -5168 47 6
c27 3 163 15 303 26 140 11 361 28 490 39 129 11 296 24 370 30 1141 91 1931
157 1935 162 3 2 -30 79 -74 169 -371 774 -798 2022 -1356 3964 -210 732 -390
1383 -904 3270 -253 930 -517 1892 -586 2139 -119 427 -137 505 -115 491 5 -3
5 8 -2 27 -14 42 -24 53 -31 34z"/>
<path d="M4390 11742 c-997 -2058 -1539 -3282 -2065 -4667 -48 -126 -123 -310
-166 -407 -446 -1006 -760 -1819 -1492 -3863 -119 -331 -257 -713 -307 -850
-51 -138 -108 -292 -127 -344 l-34 -94 83 74 c121 109 170 148 293 231 199
137 446 271 725 395 312 139 868 349 901 340 23 -6 -6 -99 278 908 325 1155
333 1186 327 1192 -3 4 -6 0 -6 -7 0 -7 -3 -11 -6 -8 -9 9 168 672 436 1638
l83 295 -12 285 c-15 364 -14 499 4 795 16 282 20 327 46 545 62 532 179 1083
345 1628 20 64 47 154 60 200 37 129 85 249 319 807 237 567 627 1526 622
1531 -2 2 -140 -279 -307 -624z m-1603 -7134 c-3 -8 -6 -5 -6 6 -1 11 2 17 5
13 3 -3 4 -12 1 -19z"/>
<path d="M4571 10894 c0 -11 3 -14 6 -6 3 7 2 16 -1 19 -3 4 -6 -2 -5 -13z"/>
<path d="M3876 8434 c-4 -14 -5 -28 -3 -31 3 -2 8 8 11 23 4 14 5 28 3 31 -3
2 -8 -8 -11 -23z"/>
<path d="M3861 8374 c0 -11 3 -14 6 -6 3 7 2 16 -1 19 -3 4 -6 -2 -5 -13z"/>
<path d="M3841 8304 c0 -11 3 -14 6 -6 3 7 2 16 -1 19 -3 4 -6 -2 -5 -13z"/>
<path d="M2816 4704 c-4 -14 -5 -28 -3 -31 3 -2 8 8 11 23 4 14 5 28 3 31 -3
2 -8 -8 -11 -23z"/>
<path d="M7475 2199 c-759 -64 -2059 -171 -2365 -195 -107 -9 -203 -18 -212
-22 -14 -6 -8 -17 35 -64 l52 -58 453 36 c249 20 456 33 460 29 10 -10 15 -6
-530 -342 -350 -216 -495 -310 -491 -320 3 -8 11 -12 17 -10 6 3 246 149 533
326 318 196 523 328 526 340 3 15 18 19 83 24 44 4 311 25 594 47 283 22 571
45 640 50 701 55 891 70 905 70 8 0 33 16 55 36 34 31 40 43 40 75 l0 39 -52
-1 c-29 -1 -363 -28 -743 -60z"/>
</g>
</svg>
